<svg width="1200" height="630" viewBox="0 0 1200 630" fill="none" xmlns="http://www.w3.org/2000/svg" role="img" aria-label="Gosnell Used Auto Parts">
  <defs>
    <linearGradient id="bg" x1="0" y1="0" x2="1200" y2="630" gradientUnits="userSpaceOnUse">
      <stop stop-color="#0A3D25"/>
      <stop offset="1" stop-color="#052014"/>
    </linearGradient>
    <linearGradient id="accent" x1="0" y1="0" x2="1" y2="1">
      <stop stop-color="#F97316"/>
      <stop offset="1" stop-color="#FB923C"/>
    </linearGradient>
  </defs>
  <rect width="1200" height="630" fill="url(#bg)"/>
  <path d="M0 520L140 430L280 470L440 390L620 460L790 360L940 430L1080 390L1200 430V630H0V520Z" fill="#F8FAFC" fill-opacity="0.12"/>
  <rect x="72" y="84" width="172" height="172" rx="24" fill="#0F5132" stroke="#22C55E" stroke-opacity="0.45"/>
  <path d="M118 194L158 130L198 194H181L171 178H145L135 194H118Z" fill="#F97316"/>
  <circle cx="200" cy="196" r="16" fill="#F8FAFC"/>
  <path d="M194 196H206M200 190V202" stroke="#0F5132" stroke-width="3" stroke-linecap="round"/>
  <text x="280" y="180" fill="#F8FAFC" font-family="Arial, Helvetica, sans-serif" font-size="66" font-weight="800" letter-spacing="-0.8">
    GOSNELL USED
  </text>
  <text x="280" y="260" fill="url(#accent)" font-family="Arial, Helvetica, sans-serif" font-size="78" font-weight="900" letter-spacing="-1.2">
    AUTO PARTS
  </text>
  <text x="280" y="318" fill="#CBD5E1" font-family="Arial, Helvetica, sans-serif" font-size="34" font-weight="600">
    Flat Rock, NC • Family-Owned • Quality Used OEM Parts
  </text>
  <rect x="280" y="370" width="395" height="66" rx="14" fill="#F97316"/>
  <text x="312" y="414" fill="#FFFFFF" font-family="Arial, Helvetica, sans-serif" font-size="34" font-weight="800">
    (828) 696-2500
  </text>
  <text x="74" y="586" fill="#94A3B8" font-family="Arial, Helvetica, sans-serif" font-size="24" font-weight="500">
    Serving Henderson County, Hendersonville, Asheville, and Western North Carolina
  </text>
</svg>
